<svg width="53" height="45" viewBox="0 0 53 45" fill="none" xmlns="http://www.w3.org/2000/svg">
<path d="M35.1628 11.9269C35.1628 14.6565 34.4739 15.7484 32.4073 17.7957C30.4784 19.7064 6.91894 40.0424 3.06124 43.318C2.64792 43.7274 2.23459 44.0004 1.68349 44.2733C0.856843 44.6828 0.443519 44.8193 0.167969 44.5463C0.167969 44.5463 29.3762 16.1579 30.2029 15.339C30.8918 14.6565 31.3051 13.9741 31.3051 12.3363C31.3051 10.6985 29.514 9.33371 28.4118 9.33371C27.3096 9.33371 27.3096 9.33371 27.1718 9.33371H17.3898C17.1143 9.33371 16.8387 9.60668 16.8387 10.0161C16.8387 10.4256 17.1143 10.5621 17.3898 10.6985L22.7631 12.0634C22.9008 12.0634 23.0386 12.1999 23.0386 12.4728V14.3836C23.0386 14.6565 23.3142 14.793 23.4519 14.9295L25.243 16.9768L22.6253 19.4334L13.3944 9.4702L9.94999 5.78516H27.9985C30.2029 5.78516 31.0295 5.92164 32.2695 6.60405C33.5095 7.14999 35.3006 9.19723 35.3006 11.9269H35.1628Z" fill="#8313B2"/>
<path d="M36.9544 1.96225C35.7144 1.14335 34.1989 0.733903 32.5456 0.460938C31.9945 0.460938 31.4434 0.460938 30.8923 0.460938H3.47511C3.19956 0.460938 3.06179 0.59742 3.06179 0.870386C3.06179 1.14335 3.19956 1.27984 3.47511 1.27984H11.4661C11.6038 1.27984 11.8794 1.41632 11.8794 1.68928C11.8794 1.96225 11.7416 2.09873 11.4661 2.09873H3.33734C2.92401 2.09873 2.92401 2.64466 3.33734 2.64466H12.5683C12.706 2.64466 12.9816 2.78115 12.9816 3.05411C12.9816 3.32708 12.8438 3.46356 12.5683 3.46356H3.47511C3.19956 3.46356 3.06179 3.60005 3.06179 3.87301C3.06179 4.14598 3.19956 4.41894 3.47511 4.41894H29.7901C30.0657 4.41894 31.3056 4.41894 31.8567 4.41894C35.8522 4.41894 38.8833 8.10398 38.8833 12.062C38.8833 16.02 38.1944 15.6105 37.0922 16.9754C35.7144 18.6132 23.4525 28.7129 17.8037 33.3533C16.0126 34.8546 14.9104 36.9019 14.7727 39.2221V40.8599L37.9188 21.4793L38.6077 20.9334C39.5721 20.1145 40.3988 19.2956 41.0877 18.2037C42.1899 16.5659 42.741 14.5187 42.741 12.4714V12.1985C42.741 7.9675 40.3988 4.28246 37.0922 2.3717L36.9544 1.96225Z" fill="#97AFDD"/>
<path d="M21.1113 21.3444L18.7692 23.8011L2.51172 5.92188H7.05829L21.1113 21.3444Z" fill="#97AFDD"/>
<path d="M34.3365 27.0742L31.7188 29.6674L39.8475 38.6753C40.8119 39.7671 42.1896 40.3131 43.5674 40.3131H46.1851L34.1987 27.2107L34.3365 27.0742Z" fill="#8313B2"/>
<path d="M35.3003 41.9506L27.7227 33.6251L29.9271 31.4414L36.5403 38.675C38.3313 40.5858 40.8113 41.6776 43.429 41.6776H48.1133C48.94 41.6776 49.7666 41.9506 50.3177 42.633L52.1088 44.4073L42.3268 44.9532C39.7091 44.9532 37.0913 43.9978 35.4381 42.0871L35.3003 41.9506Z" fill="#97AFDD"/>
</svg>
