<?xml version="1.0" encoding="UTF-8"?>
<svg width="32px" height="32px" viewBox="0 0 32 32" version="1.1" xmlns="http://www.w3.org/2000/svg">
  <g stroke="none" stroke-width="1" fill="none" fill-rule="evenodd">
    <circle fill="#3563E9" cx="16" cy="16" r="16"></circle>
    <g transform="translate(8, 8)" fill="#FFFFFF">
      <path d="M14.5,11.5 L13.5,11.5 L13.5,12.5 C13.5,12.7761 13.2761,13 13,13 L11,13 C10.7239,13 10.5,12.7761 10.5,12.5 L10.5,11.5 L5.5,11.5 L5.5,12.5 C5.5,12.7761 5.27614,13 5,13 L3,13 C2.72386,13 2.5,12.7761 2.5,12.5 L2.5,11.5 L1.5,11.5 C0.947715,11.5 0.5,11.0523 0.5,10.5 L0.5,2.5 C0.5,1.94772 0.947715,1.5 1.5,1.5 L2.95553,1.5 L3.93934,0.31066 C4.2299,0 4.61803,0 5,0 L11,0 C11.3676,0 11.7701,0 12.0607,0.31066 L13.0445,1.5 L14.5,1.5 C15.0523,1.5 15.5,1.94772 15.5,2.5 L15.5,10.5 C15.5,11.0523 15.0523,11.5 14.5,11.5 Z M11.5,9.5 C12.6046,9.5 13.5,8.60457 13.5,7.5 C13.5,6.39543 12.6046,5.5 11.5,5.5 C10.3954,5.5 9.5,6.39543 9.5,7.5 C9.5,8.60457 10.3954,9.5 11.5,9.5 Z M4.5,9.5 C5.60457,9.5 6.5,8.60457 6.5,7.5 C6.5,6.39543 5.60457,5.5 4.5,5.5 C3.39543,5.5 2.5,6.39543 2.5,7.5 C2.5,8.60457 3.39543,9.5 4.5,9.5 Z M2.5,3 C2.5,2.72386 2.72386,2.5 3,2.5 L13,2.5 C13.2761,2.5 13.5,2.72386 13.5,3 L13.5,3.5 C13.5,3.77614 13.2761,4 13,4 L3,4 C2.72386,4 2.5,3.77614 2.5,3.5 L2.5,3 Z" />
    </g>
  </g>
</svg> 