<svg width="14" height="17" viewBox="0 0 14 17" fill="none" xmlns="http://www.w3.org/2000/svg">
<path d="M7 2.78571C5.61553 2.78571 4.26216 3.18788 3.11101 3.94135C1.95987 4.69482 1.06266 5.76576 0.532846 7.01874C0.003033 8.27172 -0.13559 9.65046 0.134506 10.9806C0.404603 12.3108 1.07129 13.5326 2.05026 14.4916C3.02922 15.4506 4.2765 16.1037 5.63437 16.3682C6.99224 16.6328 8.3997 16.497 9.67879 15.978C10.9579 15.459 12.0511 14.5801 12.8203 13.4525C13.5895 12.3248 14 10.9991 14 9.64286C13.9979 7.82487 13.2597 6.08193 11.9474 4.79642C10.6351 3.51091 8.85587 2.78779 7 2.78571ZM7 15.3571C5.84628 15.3571 4.71846 15.022 3.75918 14.3941C2.79989 13.7662 2.05222 12.8738 1.61071 11.8296C1.16919 10.7855 1.05368 9.63652 1.27876 8.52805C1.50384 7.41959 2.05941 6.4014 2.87521 5.60225C3.69102 4.80309 4.73042 4.25886 5.86198 4.03837C6.99353 3.81788 8.16642 3.93104 9.23232 4.36354C10.2982 4.79605 11.2093 5.52846 11.8502 6.46817C12.4912 7.40788 12.8333 8.51268 12.8333 9.64286C12.8316 11.1579 12.2165 12.6103 11.1229 13.6816C10.0293 14.7529 8.54656 15.3554 7 15.3571ZM10.3294 6.38143C10.3836 6.4345 10.4266 6.49752 10.456 6.56689C10.4854 6.63626 10.5005 6.71062 10.5005 6.78571C10.5005 6.86081 10.4854 6.93517 10.456 7.00454C10.4266 7.07391 10.3836 7.13693 10.3294 7.19L7.41271 10.0471C7.35851 10.1002 7.29417 10.1423 7.22336 10.1711C7.15255 10.1998 7.07665 10.2146 7 10.2146C6.92335 10.2146 6.84746 10.1998 6.77665 10.1711C6.70583 10.1423 6.64149 10.1002 6.58729 10.0471C6.5331 9.99405 6.4901 9.93102 6.46077 9.86165C6.43144 9.79229 6.41634 9.71794 6.41634 9.64286C6.41634 9.56777 6.43144 9.49343 6.46077 9.42406C6.4901 9.35469 6.5331 9.29166 6.58729 9.23857L9.50396 6.38143C9.55814 6.3283 9.62247 6.28615 9.69329 6.25739C9.7641 6.22864 9.84001 6.21384 9.91667 6.21384C9.99333 6.21384 10.0692 6.22864 10.14 6.25739C10.2109 6.28615 10.2752 6.3283 10.3294 6.38143ZM4.66667 1.07143C4.66667 0.919876 4.72813 0.774531 4.83752 0.667368C4.94692 0.560204 5.09529 0.5 5.25 0.5H8.75C8.90471 0.5 9.05308 0.560204 9.16248 0.667368C9.27188 0.774531 9.33333 0.919876 9.33333 1.07143C9.33333 1.22298 9.27188 1.36833 9.16248 1.47549C9.05308 1.58265 8.90471 1.64286 8.75 1.64286H5.25C5.09529 1.64286 4.94692 1.58265 4.83752 1.47549C4.72813 1.36833 4.66667 1.22298 4.66667 1.07143Z" fill="#A0A0A0"/>
</svg>
